<?xml version="1.0" encoding="utf-8" standalone="no"?>
<!DOCTYPE svg PUBLIC "-//W3C//DTD SVG 1.1//EN"
  "http://www.w3.org/Graphics/SVG/1.1/DTD/svg11.dtd">
<svg xmlns:xlink="http://www.w3.org/1999/xlink" width="514.7875pt" height="514.628963pt" viewBox="0 0 514.7875 514.628963" xmlns="http://www.w3.org/2000/svg" version="1.1">
 <metadata>
  <rdf:RDF xmlns:dc="http://purl.org/dc/elements/1.1/" xmlns:cc="http://creativecommons.org/ns#" xmlns:rdf="http://www.w3.org/1999/02/22-rdf-syntax-ns#">
   <cc:Work>
    <dc:type rdf:resource="http://purl.org/dc/dcmitype/StillImage"/>
    <dc:date>2025-10-04T02:15:08.601484</dc:date>
    <dc:format>image/svg+xml</dc:format>
    <dc:creator>
     <cc:Agent>
      <dc:title>Matplotlib v3.8.2, https://matplotlib.org/</dc:title>
     </cc:Agent>
    </dc:creator>
   </cc:Work>
  </rdf:RDF>
 </metadata>
 <defs>
  <style type="text/css">*{stroke-linejoin: round; stroke-linecap: butt}</style>
 </defs>
 <g id="figure_1">
  <g id="patch_1">
   <path d="M 0 514.628963 
L 514.7875 514.628963 
L 514.7875 0 
L 0 0 
z
" style="fill: #ffffff"/>
  </g>
  <g id="axes_1">
   <g id="patch_2">
    <path d="M 33.2875 490.750838 
L 507.5875 490.750838 
L 507.5875 19.510837 
L 33.2875 19.510837 
z
" style="fill: #ffffff"/>
   </g>
   <g id="PolyCollection_1">
    <defs>
     <path id="mb51677d26c" d="M 53.614643 -23.878125 
L 53.614643 -495.118125 
L 54.292214 -495.118125 
L 54.969786 -495.118125 
L 55.647357 -495.118125 
L 56.324929 -495.118125 
L 57.0025 -495.118125 
L 57.680071 -495.118125 
L 58.357643 -495.118125 
L 59.035214 -495.118125 
L 59.712786 -495.118125 
L 60.390357 -495.118125 
L 61.067929 -495.118125 
L 61.7455 -495.118125 
L 62.423071 -495.118125 
L 63.100643 -495.118125 
L 63.778214 -495.118125 
L 64.455786 -495.118125 
L 65.133357 -495.118125 
L 65.810929 -495.118125 
L 66.4885 -495.118125 
L 67.166071 -495.118125 
L 67.843643 -495.118125 
L 68.521214 -495.118125 
L 69.198786 -495.118125 
L 69.876357 -495.118125 
L 70.553929 -495.118125 
L 71.2315 -495.118125 
L 71.909071 -495.118125 
L 72.586643 -495.118125 
L 73.264214 -495.118125 
L 73.941786 -495.118125 
L 74.619357 -495.118125 
L 75.296929 -495.118125 
L 75.9745 -495.118125 
L 76.652071 -495.118125 
L 77.329643 -495.118125 
L 78.007214 -495.118125 
L 78.684786 -495.118125 
L 79.362357 -495.118125 
L 80.039929 -495.118125 
L 80.7175 -495.118125 
L 81.395071 -495.118125 
L 82.072643 -495.118125 
L 82.750214 -495.118125 
L 83.427786 -495.118125 
L 84.105357 -495.118125 
L 84.782929 -495.118125 
L 85.4605 -495.118125 
L 86.138071 -495.118125 
L 86.815643 -495.118125 
L 87.493214 -495.118125 
L 88.170786 -495.118125 
L 88.848357 -495.118125 
L 89.525929 -495.118125 
L 90.2035 -495.118125 
L 90.881071 -495.118125 
L 91.558643 -495.118125 
L 92.236214 -495.118125 
L 92.913786 -495.118125 
L 93.591357 -495.118125 
L 94.268929 -495.118125 
L 94.9465 -495.118125 
L 95.624071 -495.118125 
L 96.301643 -495.118125 
L 96.979214 -495.118125 
L 97.656786 -495.118125 
L 98.334357 -495.118125 
L 99.011929 -495.118125 
L 99.6895 -495.118125 
L 100.367071 -495.118125 
L 101.044643 -495.118125 
L 101.722214 -495.118125 
L 102.399786 -495.118125 
L 103.077357 -495.118125 
L 103.754929 -495.118125 
L 104.4325 -495.118125 
L 105.110071 -495.118125 
L 105.787643 -495.118125 
L 106.465214 -495.118125 
L 107.142786 -495.118125 
L 107.820357 -495.118125 
L 108.497929 -495.118125 
L 109.1755 -495.118125 
L 109.853071 -495.118125 
L 110.530643 -495.118125 
L 111.208214 -495.118125 
L 111.885786 -495.118125 
L 112.563357 -495.118125 
L 113.240929 -495.118125 
L 113.9185 -495.118125 
L 114.596071 -495.118125 
L 115.273643 -495.118125 
L 115.951214 -495.118125 
L 116.628786 -495.118125 
L 117.306357 -495.118125 
L 117.983929 -495.118125 
L 118.6615 -495.118125 
L 119.339071 -495.118125 
L 120.016643 -495.118125 
L 120.694214 -495.118125 
L 121.371786 -495.118125 
L 122.049357 -495.118125 
L 122.726929 -495.118125 
L 123.4045 -495.118125 
L 124.082071 -495.118125 
L 124.759643 -495.118125 
L 125.437214 -495.118125 
L 126.114786 -495.118125 
L 126.792357 -495.118125 
L 127.469929 -495.118125 
L 128.1475 -495.118125 
L 128.825071 -495.118125 
L 129.502643 -495.118125 
L 130.180214 -495.118125 
L 130.857786 -495.118125 
L 131.535357 -495.118125 
L 132.212929 -495.118125 
L 132.8905 -495.118125 
L 133.568071 -495.118125 
L 134.245643 -495.118125 
L 134.923214 -495.118125 
L 135.600786 -495.118125 
L 136.278357 -495.118125 
L 136.955929 -495.118125 
L 137.6335 -495.118125 
L 138.311071 -495.118125 
L 138.988643 -495.118125 
L 139.666214 -495.118125 
L 140.343786 -495.118125 
L 141.021357 -495.118125 
L 141.698929 -495.118125 
L 142.3765 -495.118125 
L 143.054071 -495.118125 
L 143.731643 -495.118125 
L 144.409214 -495.118125 
L 145.086786 -495.118125 
L 145.764357 -495.118125 
L 146.441929 -495.118125 
L 147.1195 -495.118125 
L 147.797071 -495.118125 
L 148.474643 -495.118125 
L 149.152214 -495.118125 
L 149.829786 -495.118125 
L 150.507357 -495.118125 
L 151.184929 -495.118125 
L 151.8625 -495.118125 
L 152.540071 -495.118125 
L 153.217643 -495.118125 
L 153.895214 -495.118125 
L 154.572786 -495.118125 
L 155.250357 -495.118125 
L 155.927929 -495.118125 
L 156.6055 -495.118125 
L 157.283071 -495.118125 
L 157.960643 -495.118125 
L 158.638214 -495.118125 
L 159.315786 -495.118125 
L 159.993357 -495.118125 
L 160.670929 -495.118125 
L 161.3485 -495.118125 
L 162.026071 -495.118125 
L 162.703643 -495.118125 
L 163.381214 -495.118125 
L 164.058786 -495.118125 
L 164.736357 -495.118125 
L 165.413929 -495.118125 
L 166.0915 -495.118125 
L 166.769071 -495.118125 
L 167.446643 -495.118125 
L 168.124214 -495.118125 
L 168.801786 -495.118125 
L 169.479357 -495.118125 
L 170.156929 -495.118125 
L 170.8345 -495.118125 
L 171.512071 -495.118125 
L 172.189643 -495.118125 
L 172.867214 -495.118125 
L 173.544786 -495.118125 
L 174.222357 -495.118125 
L 174.899929 -495.118125 
L 175.5775 -495.118125 
L 176.255071 -495.118125 
L 176.932643 -495.118125 
L 177.610214 -495.118125 
L 178.287786 -495.118125 
L 178.965357 -495.118125 
L 179.642929 -495.118125 
L 180.3205 -495.118125 
L 180.998071 -495.118125 
L 181.675643 -495.118125 
L 182.353214 -495.118125 
L 183.030786 -495.118125 
L 183.708357 -495.118125 
L 184.385929 -495.118125 
L 185.0635 -495.118125 
L 185.741071 -495.118125 
L 186.418643 -495.118125 
L 187.096214 -495.118125 
L 187.773786 -495.118125 
L 188.451357 -495.118125 
L 189.128929 -495.118125 
L 189.8065 -495.118125 
L 190.484071 -495.118125 
L 191.161643 -495.118125 
L 191.839214 -495.118125 
L 192.516786 -495.118125 
L 193.194357 -495.118125 
L 193.871929 -495.118125 
L 194.5495 -495.118125 
L 195.227071 -495.118125 
L 195.904643 -495.118125 
L 196.582214 -495.118125 
L 197.259786 -495.118125 
L 197.937357 -495.118125 
L 198.614929 -495.118125 
L 199.2925 -495.118125 
L 199.970071 -495.118125 
L 200.647643 -495.118125 
L 201.325214 -495.118125 
L 202.002786 -495.118125 
L 202.680357 -495.118125 
L 203.357929 -495.118125 
L 204.0355 -495.118125 
L 204.713071 -495.118125 
L 205.390643 -495.118125 
L 206.068214 -495.118125 
L 206.745786 -495.118125 
L 207.423357 -495.118125 
L 208.100929 -495.118125 
L 208.7785 -495.118125 
L 209.456071 -495.118125 
L 210.133643 -495.118125 
L 210.811214 -495.118125 
L 211.488786 -495.118125 
L 212.166357 -495.118125 
L 212.843929 -495.118125 
L 213.5215 -495.118125 
L 214.199071 -495.118125 
L 214.876643 -495.118125 
L 215.554214 -495.118125 
L 216.231786 -495.118125 
L 216.909357 -495.118125 
L 217.586929 -495.118125 
L 218.2645 -495.118125 
L 218.942071 -495.118125 
L 219.619643 -495.118125 
L 220.297214 -495.118125 
L 220.974786 -495.118125 
L 221.652357 -495.118125 
L 222.329929 -495.118125 
L 223.0075 -495.118125 
L 223.685071 -495.118125 
L 224.362643 -495.118125 
L 225.040214 -495.118125 
L 225.717786 -495.118125 
L 226.395357 -495.118125 
L 227.072929 -495.118125 
L 227.7505 -495.118125 
L 228.428071 -495.118125 
L 229.105643 -495.118125 
L 229.783214 -495.118125 
L 230.460786 -495.118125 
L 231.138357 -495.118125 
L 231.815929 -495.118125 
L 232.4935 -495.118125 
L 233.171071 -495.118125 
L 233.848643 -495.118125 
L 234.526214 -495.118125 
L 235.203786 -495.118125 
L 235.881357 -495.118125 
L 235.881357 -23.878125 
L 235.881357 -23.878125 
L 235.203786 -23.878125 
L 234.526214 -23.878125 
L 233.848643 -23.878125 
L 233.171071 -23.878125 
L 232.4935 -23.878125 
L 231.815929 -23.878125 
L 231.138357 -23.878125 
L 230.460786 -23.878125 
L 229.783214 -23.878125 
L 229.105643 -23.878125 
L 228.428071 -23.878125 
L 227.7505 -23.878125 
L 227.072929 -23.878125 
L 226.395357 -23.878125 
L 225.717786 -23.878125 
L 225.040214 -23.878125 
L 224.362643 -23.878125 
L 223.685071 -23.878125 
L 223.0075 -23.878125 
L 222.329929 -23.878125 
L 221.652357 -23.878125 
L 220.974786 -23.878125 
L 220.297214 -23.878125 
L 219.619643 -23.878125 
L 218.942071 -23.878125 
L 218.2645 -23.878125 
L 217.586929 -23.878125 
L 216.909357 -23.878125 
L 216.231786 -23.878125 
L 215.554214 -23.878125 
L 214.876643 -23.878125 
L 214.199071 -23.878125 
L 213.5215 -23.878125 
L 212.843929 -23.878125 
L 212.166357 -23.878125 
L 211.488786 -23.878125 
L 210.811214 -23.878125 
L 210.133643 -23.878125 
L 209.456071 -23.878125 
L 208.7785 -23.878125 
L 208.100929 -23.878125 
L 207.423357 -23.878125 
L 206.745786 -23.878125 
L 206.068214 -23.878125 
L 205.390643 -23.878125 
L 204.713071 -23.878125 
L 204.0355 -23.878125 
L 203.357929 -23.878125 
L 202.680357 -23.878125 
L 202.002786 -23.878125 
L 201.325214 -23.878125 
L 200.647643 -23.878125 
L 199.970071 -23.878125 
L 199.2925 -23.878125 
L 198.614929 -23.878125 
L 197.937357 -23.878125 
L 197.259786 -23.878125 
L 196.582214 -23.878125 
L 195.904643 -23.878125 
L 195.227071 -23.878125 
L 194.5495 -23.878125 
L 193.871929 -23.878125 
L 193.194357 -23.878125 
L 192.516786 -23.878125 
L 191.839214 -23.878125 
L 191.161643 -23.878125 
L 190.484071 -23.878125 
L 189.8065 -23.878125 
L 189.128929 -23.878125 
L 188.451357 -23.878125 
L 187.773786 -23.878125 
L 187.096214 -23.878125 
L 186.418643 -23.878125 
L 185.741071 -23.878125 
L 185.0635 -23.878125 
L 184.385929 -23.878125 
L 183.708357 -23.878125 
L 183.030786 -23.878125 
L 182.353214 -23.878125 
L 181.675643 -23.878125 
L 180.998071 -23.878125 
L 180.3205 -23.878125 
L 179.642929 -23.878125 
L 178.965357 -23.878125 
L 178.287786 -23.878125 
L 177.610214 -23.878125 
L 176.932643 -23.878125 
L 176.255071 -23.878125 
L 175.5775 -23.878125 
L 174.899929 -23.878125 
L 174.222357 -23.878125 
L 173.544786 -23.878125 
L 172.867214 -23.878125 
L 172.189643 -23.878125 
L 171.512071 -23.878125 
L 170.8345 -23.878125 
L 170.156929 -23.878125 
L 169.479357 -23.878125 
L 168.801786 -23.878125 
L 168.124214 -23.878125 
L 167.446643 -23.878125 
L 166.769071 -23.878125 
L 166.0915 -23.878125 
L 165.413929 -23.878125 
L 164.736357 -23.878125 
L 164.058786 -23.878125 
L 163.381214 -23.878125 
L 162.703643 -23.878125 
L 162.026071 -23.878125 
L 161.3485 -23.878125 
L 160.670929 -23.878125 
L 159.993357 -23.878125 
L 159.315786 -23.878125 
L 158.638214 -23.878125 
L 157.960643 -23.878125 
L 157.283071 -23.878125 
L 156.6055 -23.878125 
L 155.927929 -23.878125 
L 155.250357 -23.878125 
L 154.572786 -23.878125 
L 153.895214 -23.878125 
L 153.217643 -23.878125 
L 152.540071 -23.878125 
L 151.8625 -23.878125 
L 151.184929 -23.878125 
L 150.507357 -23.878125 
L 149.829786 -23.878125 
L 149.152214 -23.878125 
L 148.474643 -23.878125 
L 147.797071 -23.878125 
L 147.1195 -23.878125 
L 146.441929 -23.878125 
L 145.764357 -23.878125 
L 145.086786 -23.878125 
L 144.409214 -23.878125 
L 143.731643 -23.878125 
L 143.054071 -23.878125 
L 142.3765 -23.878125 
L 141.698929 -23.878125 
L 141.021357 -23.878125 
L 140.343786 -23.878125 
L 139.666214 -23.878125 
L 138.988643 -23.878125 
L 138.311071 -23.878125 
L 137.6335 -23.878125 
L 136.955929 -23.878125 
L 136.278357 -23.878125 
L 135.600786 -23.878125 
L 134.923214 -23.878125 
L 134.245643 -23.878125 
L 133.568071 -23.878125 
L 132.8905 -23.878125 
L 132.212929 -23.878125 
L 131.535357 -23.878125 
L 130.857786 -23.878125 
L 130.180214 -23.878125 
L 129.502643 -23.878125 
L 128.825071 -23.878125 
L 128.1475 -23.878125 
L 127.469929 -23.878125 
L 126.792357 -23.878125 
L 126.114786 -23.878125 
L 125.437214 -23.878125 
L 124.759643 -23.878125 
L 124.082071 -23.878125 
L 123.4045 -23.878125 
L 122.726929 -23.878125 
L 122.049357 -23.878125 
L 121.371786 -23.878125 
L 120.694214 -23.878125 
L 120.016643 -23.878125 
L 119.339071 -23.878125 
L 118.6615 -23.878125 
L 117.983929 -23.878125 
L 117.306357 -23.878125 
L 116.628786 -23.878125 
L 115.951214 -23.878125 
L 115.273643 -23.878125 
L 114.596071 -23.878125 
L 113.9185 -23.878125 
L 113.240929 -23.878125 
L 112.563357 -23.878125 
L 111.885786 -23.878125 
L 111.208214 -23.878125 
L 110.530643 -23.878125 
L 109.853071 -23.878125 
L 109.1755 -23.878125 
L 108.497929 -23.878125 
L 107.820357 -23.878125 
L 107.142786 -23.878125 
L 106.465214 -23.878125 
L 105.787643 -23.878125 
L 105.110071 -23.878125 
L 104.4325 -23.878125 
L 103.754929 -23.878125 
L 103.077357 -23.878125 
L 102.399786 -23.878125 
L 101.722214 -23.878125 
L 101.044643 -23.878125 
L 100.367071 -23.878125 
L 99.6895 -23.878125 
L 99.011929 -23.878125 
L 98.334357 -23.878125 
L 97.656786 -23.878125 
L 96.979214 -23.878125 
L 96.301643 -23.878125 
L 95.624071 -23.878125 
L 94.9465 -23.878125 
L 94.268929 -23.878125 
L 93.591357 -23.878125 
L 92.913786 -23.878125 
L 92.236214 -23.878125 
L 91.558643 -23.878125 
L 90.881071 -23.878125 
L 90.2035 -23.878125 
L 89.525929 -23.878125 
L 88.848357 -23.878125 
L 88.170786 -23.878125 
L 87.493214 -23.878125 
L 86.815643 -23.878125 
L 86.138071 -23.878125 
L 85.4605 -23.878125 
L 84.782929 -23.878125 
L 84.105357 -23.878125 
L 83.427786 -23.878125 
L 82.750214 -23.878125 
L 82.072643 -23.878125 
L 81.395071 -23.878125 
L 80.7175 -23.878125 
L 80.039929 -23.878125 
L 79.362357 -23.878125 
L 78.684786 -23.878125 
L 78.007214 -23.878125 
L 77.329643 -23.878125 
L 76.652071 -23.878125 
L 75.9745 -23.878125 
L 75.296929 -23.878125 
L 74.619357 -23.878125 
L 73.941786 -23.878125 
L 73.264214 -23.878125 
L 72.586643 -23.878125 
L 71.909071 -23.878125 
L 71.2315 -23.878125 
L 70.553929 -23.878125 
L 69.876357 -23.878125 
L 69.198786 -23.878125 
L 68.521214 -23.878125 
L 67.843643 -23.878125 
L 67.166071 -23.878125 
L 66.4885 -23.878125 
L 65.810929 -23.878125 
L 65.133357 -23.878125 
L 64.455786 -23.878125 
L 63.778214 -23.878125 
L 63.100643 -23.878125 
L 62.423071 -23.878125 
L 61.7455 -23.878125 
L 61.067929 -23.878125 
L 60.390357 -23.878125 
L 59.712786 -23.878125 
L 59.035214 -23.878125 
L 58.357643 -23.878125 
L 57.680071 -23.878125 
L 57.0025 -23.878125 
L 56.324929 -23.878125 
L 55.647357 -23.878125 
L 54.969786 -23.878125 
L 54.292214 -23.878125 
L 53.614643 -23.878125 
z
" style="stroke: #ff0000; stroke-opacity: 0.2"/>
    </defs>
    <g clip-path="url(#p340cef9f4a)">
     <use xlink:href="#mb51677d26c" x="0" y="514.628963" style="fill: #ff0000; fill-opacity: 0.2; stroke: #ff0000; stroke-opacity: 0.2"/>
    </g>
   </g>
   <g id="matplotlib.axis_1">
    <g id="xtick_1">
     <g id="line2d_1">
      <defs>
       <path id="mdf59fe4042" d="M 0 0 
L 0 3.5 
" style="stroke: #000000; stroke-width: 0.8"/>
      </defs>
      <g>
       <use xlink:href="#mdf59fe4042" x="33.2875" y="490.750838" style="stroke: #000000; stroke-width: 0.8"/>
      </g>
     </g>
     <g id="text_1">
      <!-- 0 -->
      <g transform="translate(30.10625 505.349275) scale(0.1 -0.1)">
       <defs>
        <path id="DejaVuSans-30" d="M 2034 4250 
Q 1547 4250 1301 3770 
Q 1056 3291 1056 2328 
Q 1056 1369 1301 889 
Q 1547 409 2034 409 
Q 2525 409 2770 889 
Q 3016 1369 3016 2328 
Q 3016 3291 2770 3770 
Q 2525 4250 2034 4250 
z
M 2034 4750 
Q 2819 4750 3233 4129 
Q 3647 3509 3647 2328 
Q 3647 1150 3233 529 
Q 2819 -91 2034 -91 
Q 1250 -91 836 529 
Q 422 1150 422 2328 
Q 422 3509 836 4129 
Q 1250 4750 2034 4750 
z
" transform="scale(0.015625)"/>
       </defs>
       <use xlink:href="#DejaVuSans-30"/>
      </g>
     </g>
    </g>
    <g id="xtick_2">
     <g id="line2d_2">
      <g>
       <use xlink:href="#mdf59fe4042" x="134.923214" y="490.750838" style="stroke: #000000; stroke-width: 0.8"/>
      </g>
     </g>
     <g id="text_2">
      <!-- 5 -->
      <g transform="translate(131.741964 505.349275) scale(0.1 -0.1)">
       <defs>
        <path id="DejaVuSans-35" d="M 691 4666 
L 3169 4666 
L 3169 4134 
L 1269 4134 
L 1269 2991 
Q 1406 3038 1543 3061 
Q 1681 3084 1819 3084 
Q 2600 3084 3056 2656 
Q 3513 2228 3513 1497 
Q 3513 744 3044 326 
Q 2575 -91 1722 -91 
Q 1428 -91 1123 -41 
Q 819 9 494 109 
L 494 744 
Q 775 591 1075 516 
Q 1375 441 1709 441 
Q 2250 441 2565 725 
Q 2881 1009 2881 1497 
Q 2881 1984 2565 2268 
Q 2250 2553 1709 2553 
Q 1456 2553 1204 2497 
Q 953 2441 691 2322 
L 691 4666 
z
" transform="scale(0.015625)"/>
       </defs>
       <use xlink:href="#DejaVuSans-35"/>
      </g>
     </g>
    </g>
    <g id="xtick_3">
     <g id="line2d_3">
      <g>
       <use xlink:href="#mdf59fe4042" x="236.558929" y="490.750838" style="stroke: #000000; stroke-width: 0.8"/>
      </g>
     </g>
     <g id="text_3">
      <!-- 10 -->
      <g transform="translate(230.196429 505.349275) scale(0.1 -0.1)">
       <defs>
        <path id="DejaVuSans-31" d="M 794 531 
L 1825 531 
L 1825 4091 
L 703 3866 
L 703 4441 
L 1819 4666 
L 2450 4666 
L 2450 531 
L 3481 531 
L 3481 0 
L 794 0 
L 794 531 
z
" transform="scale(0.015625)"/>
       </defs>
       <use xlink:href="#DejaVuSans-31"/>
       <use xlink:href="#DejaVuSans-30" x="63.623047"/>
      </g>
     </g>
    </g>
    <g id="xtick_4">
     <g id="line2d_4">
      <g>
       <use xlink:href="#mdf59fe4042" x="338.194643" y="490.750838" style="stroke: #000000; stroke-width: 0.8"/>
      </g>
     </g>
     <g id="text_4">
      <!-- 15 -->
      <g transform="translate(331.832143 505.349275) scale(0.1 -0.1)">
       <use xlink:href="#DejaVuSans-31"/>
       <use xlink:href="#DejaVuSans-35" x="63.623047"/>
      </g>
     </g>
    </g>
    <g id="xtick_5">
     <g id="line2d_5">
      <g>
       <use xlink:href="#mdf59fe4042" x="439.830357" y="490.750838" style="stroke: #000000; stroke-width: 0.8"/>
      </g>
     </g>
     <g id="text_5">
      <!-- 20 -->
      <g transform="translate(433.467857 505.349275) scale(0.1 -0.1)">
       <defs>
        <path id="DejaVuSans-32" d="M 1228 531 
L 3431 531 
L 3431 0 
L 469 0 
L 469 531 
Q 828 903 1448 1529 
Q 2069 2156 2228 2338 
Q 2531 2678 2651 2914 
Q 2772 3150 2772 3378 
Q 2772 3750 2511 3984 
Q 2250 4219 1831 4219 
Q 1534 4219 1204 4116 
Q 875 4013 500 3803 
L 500 4441 
Q 881 4594 1212 4672 
Q 1544 4750 1819 4750 
Q 2544 4750 2975 4387 
Q 3406 4025 3406 3419 
Q 3406 3131 3298 2873 
Q 3191 2616 2906 2266 
Q 2828 2175 2409 1742 
Q 1991 1309 1228 531 
z
" transform="scale(0.015625)"/>
       </defs>
       <use xlink:href="#DejaVuSans-32"/>
       <use xlink:href="#DejaVuSans-30" x="63.623047"/>
      </g>
     </g>
    </g>
   </g>
   <g id="matplotlib.axis_2">
    <g id="ytick_1">
     <g id="line2d_6">
      <defs>
       <path id="m0817d2e4c3" d="M 0 0 
L -3.5 0 
" style="stroke: #000000; stroke-width: 0.8"/>
      </defs>
      <g>
       <use xlink:href="#m0817d2e4c3" x="33.2875" y="490.750838" style="stroke: #000000; stroke-width: 0.8"/>
      </g>
     </g>
     <g id="text_6">
      <!-- 0 -->
      <g transform="translate(19.925 494.550056) scale(0.1 -0.1)">
       <use xlink:href="#DejaVuSans-30"/>
      </g>
     </g>
    </g>
    <g id="ytick_2">
     <g id="line2d_7">
      <g>
       <use xlink:href="#m0817d2e4c3" x="33.2875" y="431.845838" style="stroke: #000000; stroke-width: 0.8"/>
      </g>
     </g>
     <g id="text_7">
      <!-- 50 -->
      <g transform="translate(13.5625 435.645056) scale(0.1 -0.1)">
       <use xlink:href="#DejaVuSans-35"/>
       <use xlink:href="#DejaVuSans-30" x="63.623047"/>
      </g>
     </g>
    </g>
    <g id="ytick_3">
     <g id="line2d_8">
      <g>
       <use xlink:href="#m0817d2e4c3" x="33.2875" y="372.940838" style="stroke: #000000; stroke-width: 0.8"/>
      </g>
     </g>
     <g id="text_8">
      <!-- 100 -->
      <g transform="translate(7.2 376.740056) scale(0.1 -0.1)">
       <use xlink:href="#DejaVuSans-31"/>
       <use xlink:href="#DejaVuSans-30" x="63.623047"/>
       <use xlink:href="#DejaVuSans-30" x="127.246094"/>
      </g>
     </g>
    </g>
    <g id="ytick_4">
     <g id="line2d_9">
      <g>
       <use xlink:href="#m0817d2e4c3" x="33.2875" y="314.035838" style="stroke: #000000; stroke-width: 0.8"/>
      </g>
     </g>
     <g id="text_9">
      <!-- 150 -->
      <g transform="translate(7.2 317.835056) scale(0.1 -0.1)">
       <use xlink:href="#DejaVuSans-31"/>
       <use xlink:href="#DejaVuSans-35" x="63.623047"/>
       <use xlink:href="#DejaVuSans-30" x="127.246094"/>
      </g>
     </g>
    </g>
    <g id="ytick_5">
     <g id="line2d_10">
      <g>
       <use xlink:href="#m0817d2e4c3" x="33.2875" y="255.130838" style="stroke: #000000; stroke-width: 0.8"/>
      </g>
     </g>
     <g id="text_10">
      <!-- 200 -->
      <g transform="translate(7.2 258.930056) scale(0.1 -0.1)">
       <use xlink:href="#DejaVuSans-32"/>
       <use xlink:href="#DejaVuSans-30" x="63.623047"/>
       <use xlink:href="#DejaVuSans-30" x="127.246094"/>
      </g>
     </g>
    </g>
    <g id="ytick_6">
     <g id="line2d_11">
      <g>
       <use xlink:href="#m0817d2e4c3" x="33.2875" y="196.225838" style="stroke: #000000; stroke-width: 0.8"/>
      </g>
     </g>
     <g id="text_11">
      <!-- 250 -->
      <g transform="translate(7.2 200.025056) scale(0.1 -0.1)">
       <use xlink:href="#DejaVuSans-32"/>
       <use xlink:href="#DejaVuSans-35" x="63.623047"/>
       <use xlink:href="#DejaVuSans-30" x="127.246094"/>
      </g>
     </g>
    </g>
    <g id="ytick_7">
     <g id="line2d_12">
      <g>
       <use xlink:href="#m0817d2e4c3" x="33.2875" y="137.320837" style="stroke: #000000; stroke-width: 0.8"/>
      </g>
     </g>
     <g id="text_12">
      <!-- 300 -->
      <g transform="translate(7.2 141.120056) scale(0.1 -0.1)">
       <defs>
        <path id="DejaVuSans-33" d="M 2597 2516 
Q 3050 2419 3304 2112 
Q 3559 1806 3559 1356 
Q 3559 666 3084 287 
Q 2609 -91 1734 -91 
Q 1441 -91 1130 -33 
Q 819 25 488 141 
L 488 750 
Q 750 597 1062 519 
Q 1375 441 1716 441 
Q 2309 441 2620 675 
Q 2931 909 2931 1356 
Q 2931 1769 2642 2001 
Q 2353 2234 1838 2234 
L 1294 2234 
L 1294 2753 
L 1863 2753 
Q 2328 2753 2575 2939 
Q 2822 3125 2822 3475 
Q 2822 3834 2567 4026 
Q 2313 4219 1838 4219 
Q 1578 4219 1281 4162 
Q 984 4106 628 3988 
L 628 4550 
Q 988 4650 1302 4700 
Q 1616 4750 1894 4750 
Q 2613 4750 3031 4423 
Q 3450 4097 3450 3541 
Q 3450 3153 3228 2886 
Q 3006 2619 2597 2516 
z
" transform="scale(0.015625)"/>
       </defs>
       <use xlink:href="#DejaVuSans-33"/>
       <use xlink:href="#DejaVuSans-30" x="63.623047"/>
       <use xlink:href="#DejaVuSans-30" x="127.246094"/>
      </g>
     </g>
    </g>
    <g id="ytick_8">
     <g id="line2d_13">
      <g>
       <use xlink:href="#m0817d2e4c3" x="33.2875" y="78.415838" style="stroke: #000000; stroke-width: 0.8"/>
      </g>
     </g>
     <g id="text_13">
      <!-- 350 -->
      <g transform="translate(7.2 82.215056) scale(0.1 -0.1)">
       <use xlink:href="#DejaVuSans-33"/>
       <use xlink:href="#DejaVuSans-35" x="63.623047"/>
       <use xlink:href="#DejaVuSans-30" x="127.246094"/>
      </g>
     </g>
    </g>
    <g id="ytick_9">
     <g id="line2d_14">
      <g>
       <use xlink:href="#m0817d2e4c3" x="33.2875" y="19.510837" style="stroke: #000000; stroke-width: 0.8"/>
      </g>
     </g>
     <g id="text_14">
      <!-- 400 -->
      <g transform="translate(7.2 23.310056) scale(0.1 -0.1)">
       <defs>
        <path id="DejaVuSans-34" d="M 2419 4116 
L 825 1625 
L 2419 1625 
L 2419 4116 
z
M 2253 4666 
L 3047 4666 
L 3047 1625 
L 3713 1625 
L 3713 1100 
L 3047 1100 
L 3047 0 
L 2419 0 
L 2419 1100 
L 313 1100 
L 313 1709 
L 2253 4666 
z
" transform="scale(0.015625)"/>
       </defs>
       <use xlink:href="#DejaVuSans-34"/>
       <use xlink:href="#DejaVuSans-30" x="63.623047"/>
       <use xlink:href="#DejaVuSans-30" x="127.246094"/>
      </g>
     </g>
    </g>
   </g>
   <g id="line2d_15">
    <path d="M 33.2875 490.056088 
L 34.642643 489.719488 
L 35.320214 488.781817 
L 35.997786 488.546731 
L 36.675357 488.955459 
L 37.352929 488.421174 
L 38.0305 489.027588 
L 38.708071 489.225274 
L 39.385643 488.640231 
L 40.740786 487.991074 
L 42.095929 489.476388 
L 42.7735 490.002659 
L 43.451071 490.750838 
L 44.806214 490.750838 
L 45.483786 490.534274 
L 46.161357 490.186988 
L 46.838929 490.280488 
L 47.5165 490.197674 
L 48.194071 490.750838 
L 59.712786 490.750838 
L 60.390357 489.425631 
L 61.7455 479.466545 
L 62.423071 475.726545 
L 64.455786 459.901002 
L 65.133357 451.365788 
L 67.166071 435.502845 
L 69.876357 418.472488 
L 70.553929 413.530345 
L 71.909071 406.026302 
L 72.586643 401.746674 
L 73.264214 401.746674 
L 73.941786 395.110845 
L 74.619357 391.392217 
L 75.296929 389.741274 
L 75.9745 387.069845 
L 76.652071 383.551574 
L 78.007214 375.286174 
L 80.039929 367.151674 
L 80.7175 365.391202 
L 81.395071 361.621817 
L 82.072643 359.506045 
L 84.105357 350.690331 
L 84.782929 348.625317 
L 85.4605 345.697431 
L 86.138071 344.137317 
L 86.815643 340.595002 
L 87.493214 343.154231 
L 88.170786 339.924474 
L 90.2035 332.134588 
L 91.558643 329.543302 
L 92.236214 326.479174 
L 92.913786 326.479174 
L 93.591357 323.807745 
L 94.268929 321.745402 
L 94.9465 320.118502 
L 96.301643 314.767631 
L 96.979214 313.552131 
L 97.656786 311.802345 
L 98.334357 309.309902 
L 99.011929 309.694588 
L 99.6895 308.444359 
L 101.722214 302.853059 
L 102.399786 301.720374 
L 103.077357 301.859288 
L 104.4325 298.063188 
L 105.110071 298.063188 
L 105.787643 296.097017 
L 106.465214 295.447859 
L 107.142786 294.090774 
L 107.820357 292.397088 
L 108.497929 291.144188 
L 109.1755 290.511059 
L 109.853071 288.862788 
L 111.208214 285.007917 
L 111.885786 281.951802 
L 112.563357 279.809317 
L 115.951214 272.035459 
L 116.628786 270.034559 
L 117.306357 270.034559 
L 119.339071 265.565259 
L 120.016643 262.725531 
L 120.694214 262.530517 
L 121.371786 261.785188 
L 122.049357 259.712159 
L 122.726929 259.388917 
L 123.4045 257.850174 
L 124.759643 256.137788 
L 125.437214 254.583017 
L 126.114786 251.647117 
L 127.469929 249.985488 
L 128.1475 248.628402 
L 128.825071 247.752174 
L 129.502643 246.389745 
L 130.180214 245.812717 
L 130.857786 244.022859 
L 131.535357 244.022859 
L 132.212929 242.652417 
L 132.8905 239.409302 
L 133.568071 238.810902 
L 134.245643 237.290859 
L 134.923214 234.680874 
L 136.278357 232.757445 
L 136.955929 231.264117 
L 137.6335 230.759217 
L 138.311071 229.394117 
L 138.988643 228.600702 
L 139.666214 228.809074 
L 141.021357 227.489388 
L 141.698929 226.952431 
L 142.3765 224.622945 
L 143.054071 225.365602 
L 143.731643 224.401217 
L 144.409214 224.171474 
L 145.086786 222.734245 
L 145.764357 223.068174 
L 146.441929 223.188388 
L 147.1195 222.648759 
L 147.797071 222.461759 
L 148.474643 222.437717 
L 149.152214 221.120702 
L 150.507357 219.328174 
L 151.184929 219.357559 
L 151.8625 219.597988 
L 152.540071 219.175902 
L 153.217643 216.563245 
L 153.895214 216.782302 
L 154.572786 216.234659 
L 155.250357 214.832159 
L 155.927929 214.760031 
L 157.283071 213.250674 
L 157.960643 212.924759 
L 158.638214 211.947017 
L 159.315786 213.165188 
L 159.993357 212.406502 
L 160.670929 210.982631 
L 161.3485 210.907831 
L 162.026071 209.911388 
L 162.703643 210.405602 
L 163.381214 209.299631 
L 164.058786 208.538274 
L 164.736357 208.305859 
L 165.413929 207.549845 
L 166.0915 205.810745 
L 166.769071 205.845474 
L 167.446643 203.697645 
L 168.124214 203.783131 
L 168.801786 204.670045 
L 169.479357 203.836559 
L 170.156929 202.661131 
L 170.8345 202.941631 
L 171.512071 202.484817 
L 172.189643 200.320959 
L 172.867214 199.388631 
L 173.544786 199.912231 
L 174.222357 198.370817 
L 174.899929 198.376159 
L 175.5775 199.466102 
L 176.255071 198.084974 
L 176.932643 197.056474 
L 177.610214 197.112574 
L 178.287786 198.659331 
L 178.965357 198.266631 
L 179.642929 199.524874 
L 180.3205 198.608574 
L 180.998071 199.062717 
L 181.675643 197.540002 
L 182.353214 195.536431 
L 183.708357 195.515059 
L 184.385929 194.756374 
L 185.0635 193.639717 
L 185.741071 193.121459 
L 186.418643 192.822259 
L 187.773786 188.668188 
L 188.451357 187.984302 
L 189.128929 187.898817 
L 189.8065 185.144574 
L 190.484071 183.328002 
L 191.839214 183.413488 
L 192.516786 183.087574 
L 193.871929 182.887217 
L 194.5495 183.715359 
L 195.227071 183.309302 
L 195.904643 183.648574 
L 197.259786 182.633431 
L 197.937357 181.458002 
L 198.614929 180.894331 
L 199.2925 182.222031 
L 201.325214 178.246945 
L 202.002786 178.781231 
L 202.680357 177.822188 
L 203.357929 177.432159 
L 204.0355 176.633402 
L 204.713071 176.366259 
L 205.390643 175.898759 
L 206.068214 177.319959 
L 206.745786 176.107131 
L 207.423357 177.239817 
L 208.100929 175.444617 
L 208.7785 174.368031 
L 209.456071 172.946831 
L 210.133643 172.372474 
L 210.811214 172.591531 
L 211.488786 171.939702 
L 212.166357 170.093745 
L 212.843929 169.014488 
L 213.5215 168.408074 
L 214.199071 169.033188 
L 214.876643 169.356431 
L 215.554214 169.393831 
L 216.231786 168.792759 
L 216.909357 169.332388 
L 217.586929 168.856874 
L 218.2645 167.919202 
L 218.942071 166.575474 
L 220.297214 164.705474 
L 220.974786 164.334145 
L 221.652357 163.404488 
L 222.329929 164.395588 
L 223.0075 163.869317 
L 223.685071 162.453459 
L 224.362643 163.019802 
L 225.040214 164.093717 
L 225.717786 166.075917 
L 226.395357 164.758902 
L 227.072929 165.410731 
L 227.7505 166.276274 
L 228.428071 166.599517 
L 229.105643 165.205031 
L 229.783214 165.993102 
L 230.460786 165.640474 
L 231.138357 164.104402 
L 232.4935 162.936988 
L 233.171071 161.916502 
L 233.848643 162.285159 
L 234.526214 162.285159 
L 235.203786 161.539831 
L 235.881357 160.596817 
L 236.558929 159.194317 
L 237.2365 159.963688 
L 237.914071 159.661817 
L 238.591643 158.855045 
L 239.269214 159.554959 
L 239.946786 159.619074 
L 240.624357 164.152488 
L 241.301929 164.152488 
L 241.9795 168.763374 
L 242.657071 172.099988 
L 243.334643 177.298588 
L 244.012214 183.835574 
L 244.689786 188.718945 
L 245.367357 194.726988 
L 246.044929 198.771531 
L 246.7225 204.135759 
L 247.400071 207.413602 
L 249.432786 219.600659 
L 250.110357 224.884745 
L 250.787929 227.679059 
L 252.143071 237.624788 
L 252.820643 239.900845 
L 253.498214 244.362131 
L 254.175786 247.794917 
L 254.853357 252.448545 
L 256.2085 259.829702 
L 256.886071 261.825259 
L 257.563643 262.404959 
L 258.241214 264.443259 
L 258.918786 265.688145 
L 259.596357 269.348002 
L 260.273929 271.033674 
L 260.9515 272.342674 
L 261.629071 274.626745 
L 262.306643 275.583117 
L 262.984214 277.658817 
L 263.661786 280.939331 
L 265.016929 286.501245 
L 266.372071 290.107674 
L 267.727214 295.343674 
L 268.404786 297.531574 
L 269.759929 299.353488 
L 270.4375 300.494188 
L 272.470214 305.447017 
L 273.147786 305.535174 
L 273.825357 304.650931 
L 274.502929 305.302759 
L 275.1805 305.348174 
L 276.535643 308.067688 
L 277.213214 308.708831 
L 277.890786 311.254702 
L 279.245929 315.464874 
L 279.9235 316.896759 
L 280.601071 319.191517 
L 281.278643 319.757859 
L 281.956214 321.772117 
L 282.633786 321.772117 
L 283.311357 323.628759 
L 283.988929 324.098931 
L 284.6665 325.576231 
L 285.344071 326.407045 
L 286.021643 328.530831 
L 287.376786 331.231645 
L 288.054357 331.589617 
L 288.731929 331.763259 
L 290.087071 335.757045 
L 290.764643 336.502374 
L 291.442214 338.401759 
L 292.119786 339.200517 
L 292.797357 339.766859 
L 293.474929 341.161345 
L 294.1525 341.986817 
L 294.830071 341.986817 
L 295.507643 342.571859 
L 296.185214 342.863045 
L 297.540357 344.385759 
L 298.217929 345.454331 
L 298.8955 346.918274 
L 299.573071 348.037602 
L 300.250643 348.855059 
L 300.928214 349.183645 
L 301.605786 348.598602 
L 302.283357 349.977059 
L 302.960929 351.812331 
L 303.6385 352.119545 
L 304.316071 352.784731 
L 304.993643 353.081259 
L 305.671214 354.144488 
L 306.348786 354.513145 
L 308.3815 358.111559 
L 309.059071 357.491788 
L 309.736643 359.097317 
L 310.414214 359.204174 
L 311.091786 359.556802 
L 311.769357 358.103545 
L 312.446929 358.864902 
L 313.1245 359.441931 
L 313.802071 359.628931 
L 315.157214 359.604888 
L 315.834786 361.165002 
L 316.512357 361.247817 
L 317.189929 361.680588 
L 317.8675 361.215759 
L 318.545071 361.338645 
L 319.222643 362.882731 
L 320.577786 364.448188 
L 321.255357 364.659231 
L 321.932929 365.970902 
L 322.6105 366.555945 
L 323.288071 368.578217 
L 323.965643 368.508759 
L 324.643214 367.942417 
L 325.320786 368.049274 
L 325.998357 367.862274 
L 326.675929 370.010102 
L 327.3535 369.112502 
L 328.031071 368.978931 
L 328.708643 368.051945 
L 329.386214 366.697531 
L 330.063786 365.949531 
L 330.741357 366.051045 
L 331.418929 366.943302 
L 332.774071 367.100917 
L 333.451643 366.473131 
L 334.129214 368.262988 
L 334.806786 367.659245 
L 335.484357 365.997617 
L 336.161929 364.739374 
L 336.8395 365.409902 
L 337.517071 365.674374 
L 338.194643 365.578202 
L 338.872214 365.262974 
L 339.549786 365.262974 
L 340.227357 364.266531 
L 340.904929 364.488259 
L 341.5825 366.769659 
L 342.260071 367.539031 
L 342.937643 366.657459 
L 343.615214 367.140988 
L 344.292786 367.905017 
L 344.970357 368.054617 
L 345.647929 367.084888 
L 346.3255 367.386759 
L 347.003071 368.337788 
L 347.680643 368.562188 
L 348.358214 370.816874 
L 349.035786 371.807974 
L 349.713357 373.445559 
L 351.0685 374.185545 
L 351.746071 374.132117 
L 352.423643 375.414402 
L 353.101214 374.578245 
L 353.778786 373.346717 
L 354.456357 373.632559 
L 355.133929 375.753674 
L 355.8115 377.364545 
L 356.489071 377.604974 
L 357.166643 377.463388 
L 357.844214 378.182002 
L 358.521786 376.838274 
L 359.199357 377.602302 
L 359.876929 377.938902 
L 360.5545 378.764374 
L 361.232071 378.123231 
L 361.909643 376.870331 
L 362.587214 377.786631 
L 363.264786 378.964731 
L 363.942357 379.269274 
L 364.619929 378.761702 
L 365.2975 379.154402 
L 365.975071 379.034188 
L 366.652643 379.632588 
L 367.330214 378.414417 
L 368.007786 380.637045 
L 368.685357 381.192702 
L 369.362929 381.900631 
L 370.0405 382.806245 
L 370.718071 383.455402 
L 371.395643 384.727002 
L 372.073214 384.331631 
L 372.750786 384.561374 
L 373.428357 384.283545 
L 374.105929 382.963859 
L 374.7835 384.676245 
L 376.138643 386.487474 
L 376.816214 388.413574 
L 378.171357 389.703874 
L 379.5265 391.221245 
L 380.204071 391.221245 
L 380.881643 390.355702 
L 382.236786 391.122402 
L 382.914357 391.288031 
L 383.591929 392.305845 
L 384.2695 391.966574 
L 384.947071 391.218574 
L 385.624643 391.421602 
L 386.302214 391.955888 
L 386.979786 393.507988 
L 388.334929 393.182074 
L 389.0125 394.058302 
L 389.690071 393.956788 
L 390.367643 394.103717 
L 391.045214 395.850831 
L 391.722786 394.875759 
L 392.400357 395.108174 
L 393.077929 395.634445 
L 393.7555 396.564102 
L 394.433071 396.983517 
L 395.110643 396.096602 
L 395.788214 397.130445 
L 396.465786 397.779602 
L 397.143357 396.769802 
L 397.820929 395.343259 
L 398.4985 394.541831 
L 399.176071 393.457231 
L 399.853643 393.676288 
L 400.531214 392.100145 
L 401.208786 392.629088 
L 401.886357 392.423388 
L 402.563929 392.394002 
L 403.2415 393.085902 
L 403.919071 392.992402 
L 405.274214 394.841031 
L 405.951786 395.906931 
L 406.629357 394.480388 
L 407.306929 394.907817 
L 407.9845 395.514231 
L 408.662071 395.578345 
L 409.339643 395.300517 
L 412.049929 398.872217 
L 412.7275 400.651388 
L 413.405071 400.696802 
L 414.082643 401.204374 
L 414.760214 401.936345 
L 415.437786 400.830374 
L 416.115357 400.939902 
L 416.792929 401.842845 
L 417.4705 403.988002 
L 418.825643 406.790331 
L 419.503214 407.669231 
L 420.180786 407.733345 
L 420.858357 408.729788 
L 421.535929 408.863359 
L 422.2135 409.966659 
L 422.891071 409.656774 
L 423.568643 410.511631 
L 424.246214 411.791245 
L 424.923786 411.815288 
L 425.601357 410.925702 
L 426.278929 409.595331 
L 426.9565 410.615817 
L 427.634071 410.524988 
L 428.989214 409.432374 
L 431.021929 409.801031 
L 432.377071 409.213317 
L 433.054643 407.960417 
L 433.732214 407.840202 
L 434.409786 408.676359 
L 435.087357 409.266745 
L 435.764929 409.565945 
L 437.120071 411.128731 
L 437.797643 410.864259 
L 438.475214 410.864259 
L 439.152786 412.103802 
L 439.152786 412.103802 
" clip-path="url(#p340cef9f4a)" style="fill: none; stroke: #ff6b62; stroke-width: 1.5; stroke-linecap: square"/>
   </g>
   <g id="line2d_16">
    <path d="M 33.2875 490.750838 
L 44.128643 490.750838 
L 44.806214 490.048074 
L 45.483786 489.652702 
L 46.161357 490.245759 
L 46.838929 489.788945 
L 47.5165 489.861074 
L 48.871643 488.875317 
L 49.549214 489.276031 
L 50.226786 489.225274 
L 50.904357 488.172731 
L 51.581929 488.487959 
L 52.937071 486.372188 
L 53.614643 486.022231 
L 54.292214 485.482602 
L 54.969786 485.258202 
L 56.324929 484.323202 
L 57.0025 482.458545 
L 57.680071 478.571617 
L 59.035214 465.852945 
L 60.390357 449.145831 
L 62.423071 425.124345 
L 63.100643 417.943545 
L 63.778214 407.752045 
L 66.4885 380.190917 
L 67.166071 370.776802 
L 70.553929 341.409788 
L 71.2315 342.726802 
L 71.909071 339.956531 
L 75.9745 318.804159 
L 76.652071 318.804159 
L 77.329643 316.274317 
L 78.007214 310.803231 
L 79.362357 305.981302 
L 80.7175 301.896688 
L 82.072643 294.673145 
L 82.750214 293.492374 
L 83.427786 290.449617 
L 84.105357 288.034645 
L 84.782929 285.122788 
L 85.4605 283.589388 
L 87.493214 275.291931 
L 89.525929 265.891174 
L 90.2035 263.754031 
L 91.558643 257.949017 
L 92.236214 256.212588 
L 93.591357 250.420931 
L 94.268929 245.948959 
L 94.9465 245.948959 
L 96.301643 241.102988 
L 96.979214 241.102988 
L 97.656786 240.119902 
L 98.334357 234.368317 
L 99.011929 232.557088 
L 124.082071 232.557088 
L 124.759643 183.635217 
L 125.437214 181.850702 
L 126.114786 180.496288 
L 126.792357 178.441959 
L 127.469929 176.897874 
L 128.1475 174.969102 
L 128.825071 171.819488 
L 129.502643 170.128474 
L 130.180214 170.620017 
L 130.857786 170.620017 
L 131.535357 167.868445 
L 132.212929 165.739317 
L 134.923214 159.261102 
L 135.600786 158.700102 
L 136.278357 156.739274 
L 136.955929 156.600359 
L 137.6335 153.947631 
L 138.311071 152.758845 
L 138.988643 149.726774 
L 140.343786 146.577159 
L 141.021357 145.730317 
L 141.698929 142.567345 
L 142.3765 140.080245 
L 143.054071 138.520131 
L 143.731643 136.115845 
L 144.409214 134.328659 
L 145.086786 131.729359 
L 145.764357 129.918131 
L 146.441929 130.105131 
L 147.1195 129.803259 
L 148.474643 126.926131 
L 149.152214 125.587745 
L 151.184929 124.163874 
L 151.8625 122.670545 
L 152.540071 121.556559 
L 153.217643 120.063231 
L 153.895214 119.328588 
L 154.572786 118.038288 
L 155.250357 116.211031 
L 156.6055 116.251102 
L 157.283071 117.784502 
L 157.960643 117.592159 
L 158.638214 118.869102 
L 159.993357 118.698131 
L 160.670929 118.137131 
L 161.3485 117.733745 
L 162.703643 119.443459 
L 163.381214 120.870002 
L 164.058786 120.992888 
L 164.736357 121.618002 
L 165.413929 122.016045 
L 166.0915 122.080159 
L 166.769071 121.527174 
L 168.124214 123.081945 
L 169.479357 120.992888 
L 170.156929 120.453259 
L 170.8345 120.351745 
L 171.512071 119.451474 
L 172.189643 119.865545 
L 172.867214 118.235974 
L 173.544786 117.984859 
L 174.222357 115.786274 
L 174.899929 114.728388 
L 175.5775 115.666059 
L 176.255071 114.768459 
L 176.932643 114.175402 
L 177.610214 114.437202 
L 178.287786 114.864631 
L 178.965357 114.033817 
L 179.642929 113.472817 
L 180.3205 113.753317 
L 180.998071 112.401574 
L 181.675643 112.158474 
L 182.353214 112.511102 
L 183.030786 112.155802 
L 183.708357 112.633988 
L 184.385929 113.323217 
L 185.0635 114.194102 
L 185.741071 113.769345 
L 186.418643 112.991959 
L 187.096214 114.007102 
L 187.773786 113.042717 
L 188.451357 112.527131 
L 189.128929 111.554731 
L 189.8065 109.772888 
L 190.484071 109.369502 
L 191.161643 107.045359 
L 191.839214 106.121045 
L 192.516786 104.309817 
L 193.194357 103.698059 
L 194.5495 103.214531 
L 195.227071 102.017731 
L 196.582214 101.932245 
L 197.259786 99.917988 
L 199.2925 96.482531 
L 200.647643 95.160174 
L 202.002786 90.407702 
L 202.680357 89.419274 
L 203.357929 87.949988 
L 204.0355 85.930388 
L 204.713071 84.813731 
L 205.390643 85.233145 
L 206.068214 82.762074 
L 206.745786 83.101345 
L 207.423357 81.022974 
L 208.100929 79.900974 
L 208.7785 78.071045 
L 210.133643 76.366674 
L 211.488786 72.463717 
L 212.166357 71.376445 
L 212.843929 71.849288 
L 213.5215 71.045188 
L 214.199071 69.955245 
L 216.231786 66.070988 
L 216.909357 66.677402 
L 217.586929 65.576774 
L 218.2645 64.195645 
L 218.942071 58.802031 
L 219.619643 58.802031 
L 220.297214 57.634617 
L 220.974786 57.583859 
L 221.652357 56.891959 
L 222.329929 55.374588 
L 223.0075 55.120802 
L 223.685071 55.794002 
L 224.362643 55.011274 
L 225.040214 54.925788 
L 225.717786 54.268617 
L 227.072929 52.377245 
L 227.7505 50.998788 
L 228.428071 48.965831 
L 229.105643 47.528602 
L 229.783214 44.974717 
L 230.460786 44.670174 
L 231.138357 43.874088 
L 231.815929 44.162602 
L 232.4935 43.446659 
L 233.171071 42.161702 
L 233.848643 42.006759 
L 234.526214 40.174159 
L 235.881357 38.472459 
L 236.558929 36.741374 
L 237.2365 36.490259 
L 237.914071 36.703974 
L 238.591643 38.990717 
L 239.269214 38.990717 
L 239.946786 42.383431 
L 240.624357 59.913345 
L 241.301929 59.913345 
L 244.689786 97.470959 
L 245.367357 102.226102 
L 246.044929 109.601917 
L 248.077643 127.455074 
L 250.110357 146.448931 
L 250.787929 152.617259 
L 252.143071 161.884445 
L 252.820643 164.913845 
L 253.498214 170.531859 
L 254.853357 178.420588 
L 256.2085 188.946017 
L 257.563643 194.433131 
L 258.241214 200.980802 
L 258.918786 204.678059 
L 259.596357 207.304074 
L 260.273929 210.736859 
L 260.9515 215.604202 
L 261.629071 218.110002 
L 262.306643 220.148302 
L 263.661786 227.326431 
L 264.339357 230.273017 
L 266.372071 235.989874 
L 267.049643 238.247231 
L 267.727214 239.478759 
L 268.404786 241.543774 
L 269.082357 244.241917 
L 270.4375 247.928488 
L 271.115071 249.085217 
L 271.792643 250.533131 
L 273.147786 255.670288 
L 273.825357 257.238417 
L 274.502929 259.113759 
L 275.1805 260.572359 
L 277.213214 267.397859 
L 277.890786 269.163674 
L 278.568357 271.279445 
L 279.245929 272.430831 
L 280.601071 275.917045 
L 281.956214 280.616088 
L 282.633786 282.595617 
L 283.311357 283.258131 
L 283.988929 285.285745 
L 284.6665 286.100531 
L 285.344071 287.516388 
L 286.021643 288.101431 
L 287.376786 290.545788 
L 288.054357 291.117474 
L 289.4095 293.078302 
L 290.087071 291.972331 
L 290.764643 292.188717 
L 291.442214 291.900202 
L 292.119786 293.521759 
L 292.797357 293.107688 
L 294.1525 295.605474 
L 296.185214 300.021345 
L 296.862786 300.542274 
L 297.540357 300.900245 
L 298.217929 302.463031 
L 298.8955 303.603731 
L 299.573071 302.639345 
L 300.250643 302.268017 
L 300.928214 302.730174 
L 301.605786 304.057874 
L 302.283357 304.378445 
L 302.960929 305.516474 
L 303.6385 305.516474 
L 304.316071 308.511145 
L 305.671214 309.382031 
L 307.026357 312.756045 
L 308.3815 315.961759 
L 309.736643 317.724902 
L 310.414214 319.167474 
L 311.091786 320.019659 
L 312.446929 322.477374 
L 313.1245 322.533474 
L 313.802071 323.444431 
L 314.479643 325.728502 
L 315.157214 327.590488 
L 315.834786 328.832702 
L 316.512357 329.377674 
L 317.189929 330.160402 
L 317.8675 330.756131 
L 318.545071 332.161302 
L 319.900214 335.869245 
L 320.577786 335.869245 
L 321.255357 337.619031 
L 321.932929 338.869259 
L 322.6105 339.203188 
L 323.288071 339.951188 
L 323.965643 340.466774 
L 325.320786 343.928945 
L 326.675929 346.183631 
L 327.3535 347.839917 
L 328.031071 347.871974 
L 328.708643 348.985959 
L 329.386214 351.208588 
L 330.063786 350.896031 
L 330.741357 353.115988 
L 331.418929 354.136474 
L 332.0965 355.405402 
L 333.451643 356.992231 
L 334.129214 357.622688 
L 334.806786 359.099988 
L 335.484357 360.302131 
L 336.161929 360.801688 
L 337.517071 363.785674 
L 338.194643 365.441959 
L 339.549786 368.041259 
L 340.227357 368.775902 
L 341.5825 370.750088 
L 342.937643 372.467817 
L 343.615214 375.214045 
L 344.292786 376.055545 
L 344.970357 375.689559 
L 345.647929 376.138359 
L 346.3255 377.340502 
L 347.003071 377.295088 
L 347.680643 378.483874 
L 348.358214 379.346745 
L 349.035786 379.563131 
L 349.713357 380.241674 
L 350.390929 380.583617 
L 351.746071 380.631702 
L 352.423643 381.157974 
L 353.101214 380.861445 
L 353.778786 381.601431 
L 354.456357 381.529302 
L 355.133929 381.764388 
L 355.8115 381.355659 
L 356.489071 381.459845 
L 357.166643 381.198045 
L 357.844214 381.676231 
L 358.521786 381.278188 
L 359.199357 381.975431 
L 359.876929 382.394845 
L 360.5545 382.028859 
L 361.232071 380.332502 
L 361.909643 380.332502 
L 362.587214 377.225631 
L 363.264786 378.609431 
L 363.942357 379.258588 
L 364.619929 378.980759 
L 365.2975 377.003902 
L 365.975071 376.568459 
L 366.652643 376.469617 
L 367.330214 374.685102 
L 368.685357 372.139231 
L 369.362929 371.308417 
L 370.0405 371.815988 
L 370.718071 370.806188 
L 371.395643 370.050174 
L 372.073214 368.893445 
L 372.750786 369.019002 
L 373.428357 368.420602 
L 374.105929 368.353817 
L 374.7835 367.365388 
L 375.461071 367.859602 
L 376.138643 367.718017 
L 376.816214 366.307502 
L 377.493786 366.775002 
L 378.171357 366.657459 
L 378.848929 366.775002 
L 379.5265 367.074202 
L 380.204071 366.475802 
L 380.881643 367.066188 
L 381.559214 367.442859 
L 382.236786 368.035917 
L 382.914357 368.978931 
L 383.591929 369.531917 
L 384.947071 368.949545 
L 385.624643 369.214017 
L 386.302214 369.206002 
L 386.979786 370.031474 
L 387.657357 370.568431 
L 388.334929 372.264788 
L 389.0125 372.596045 
L 389.690071 373.611188 
L 390.367643 373.619202 
L 391.045214 375.649488 
L 391.722786 376.357417 
L 392.400357 376.333374 
L 393.077929 377.666417 
L 393.7555 378.246117 
L 395.110643 378.946031 
L 395.788214 380.193588 
L 396.465786 380.375245 
L 397.143357 381.793774 
L 397.820929 382.910431 
L 398.4985 382.178459 
L 399.176071 382.146402 
L 399.853643 382.707402 
L 400.531214 381.716302 
L 401.208786 381.045774 
L 401.886357 379.894388 
L 403.2415 380.917545 
L 403.919071 382.076945 
L 404.596643 381.529302 
L 405.274214 380.038645 
L 405.951786 380.912202 
L 406.629357 381.157974 
L 407.306929 380.928231 
L 407.9845 379.987888 
L 408.662071 379.613888 
L 410.017214 380.669102 
L 410.694786 382.485674 
L 411.372357 383.610345 
L 412.049929 383.850774 
L 412.7275 384.545345 
L 413.405071 383.439374 
L 414.082643 383.265731 
L 414.760214 384.385059 
L 415.437786 384.459859 
L 416.792929 385.963874 
L 417.4705 386.353902 
L 418.148071 386.377945 
L 418.825643 385.101002 
L 419.503214 384.823174 
L 420.858357 386.383288 
L 421.535929 385.370817 
L 422.2135 385.950517 
L 422.891071 385.293345 
L 423.568643 384.991474 
L 424.246214 384.401088 
L 424.923786 384.401088 
L 425.601357 382.453617 
L 426.278929 382.485674 
L 426.9565 383.399302 
L 427.634071 383.677131 
L 428.311643 384.342317 
L 428.989214 385.488359 
L 429.666786 385.127717 
L 431.021929 383.567602 
L 431.6995 384.710974 
L 432.377071 383.482117 
L 433.054643 384.716317 
L 433.732214 384.743031 
L 434.409786 384.467874 
L 435.087357 384.972774 
L 435.764929 387.406445 
L 436.4425 387.077859 
L 437.120071 387.377059 
L 438.475214 389.431388 
L 439.152786 389.102802 
L 439.152786 389.102802 
" clip-path="url(#p340cef9f4a)" style="fill: none; stroke: #444577; stroke-width: 1.5; stroke-linecap: square"/>
   </g>
   <g id="line2d_17">
    <path d="M 53.614643 490.750838 
L 53.614643 19.510837 
" clip-path="url(#p340cef9f4a)" style="fill: none; stroke-dasharray: 5.55,2.4; stroke-dashoffset: 0; stroke: #808080; stroke-opacity: 0.7; stroke-width: 1.5"/>
   </g>
   <g id="line2d_18">
    <path d="M 236.558929 490.750838 
L 236.558929 19.510837 
" clip-path="url(#p340cef9f4a)" style="fill: none; stroke-dasharray: 5.55,2.4; stroke-dashoffset: 0; stroke: #808080; stroke-opacity: 0.7; stroke-width: 1.5"/>
   </g>
   <g id="line2d_19">
    <path d="M 439.830357 490.750838 
L 439.830357 19.510837 
" clip-path="url(#p340cef9f4a)" style="fill: none; stroke-dasharray: 5.55,2.4; stroke-dashoffset: 0; stroke: #808080; stroke-opacity: 0.7; stroke-width: 1.5"/>
   </g>
   <g id="patch_3">
    <path d="M 33.2875 490.750838 
L 33.2875 19.510837 
" style="fill: none; stroke: #000000; stroke-width: 0.8; stroke-linejoin: miter; stroke-linecap: square"/>
   </g>
   <g id="patch_4">
    <path d="M 507.5875 490.750838 
L 507.5875 19.510837 
" style="fill: none; stroke: #000000; stroke-width: 0.8; stroke-linejoin: miter; stroke-linecap: square"/>
   </g>
   <g id="patch_5">
    <path d="M 33.2875 490.750838 
L 507.5875 490.750838 
" style="fill: none; stroke: #000000; stroke-width: 0.8; stroke-linejoin: miter; stroke-linecap: square"/>
   </g>
   <g id="patch_6">
    <path d="M 33.2875 19.510837 
L 507.5875 19.510837 
" style="fill: none; stroke: #000000; stroke-width: 0.8; stroke-linejoin: miter; stroke-linecap: square"/>
   </g>
   <g id="text_15">
    <!-- a -->
    <g transform="translate(50.55058 14.798437) scale(0.1 -0.1)">
     <defs>
      <path id="DejaVuSans-61" d="M 2194 1759 
Q 1497 1759 1228 1600 
Q 959 1441 959 1056 
Q 959 750 1161 570 
Q 1363 391 1709 391 
Q 2188 391 2477 730 
Q 2766 1069 2766 1631 
L 2766 1759 
L 2194 1759 
z
M 3341 1997 
L 3341 0 
L 2766 0 
L 2766 531 
Q 2569 213 2275 61 
Q 1981 -91 1556 -91 
Q 1019 -91 701 211 
Q 384 513 384 1019 
Q 384 1609 779 1909 
Q 1175 2209 1959 2209 
L 2766 2209 
L 2766 2266 
Q 2766 2663 2505 2880 
Q 2244 3097 1772 3097 
Q 1472 3097 1187 3025 
Q 903 2953 641 2809 
L 641 3341 
Q 956 3463 1253 3523 
Q 1550 3584 1831 3584 
Q 2591 3584 2966 3190 
Q 3341 2797 3341 1997 
z
" transform="scale(0.015625)"/>
     </defs>
     <use xlink:href="#DejaVuSans-61"/>
    </g>
   </g>
   <g id="text_16">
    <!-- b -->
    <g transform="translate(233.38471 14.798437) scale(0.1 -0.1)">
     <defs>
      <path id="DejaVuSans-62" d="M 3116 1747 
Q 3116 2381 2855 2742 
Q 2594 3103 2138 3103 
Q 1681 3103 1420 2742 
Q 1159 2381 1159 1747 
Q 1159 1113 1420 752 
Q 1681 391 2138 391 
Q 2594 391 2855 752 
Q 3116 1113 3116 1747 
z
M 1159 2969 
Q 1341 3281 1617 3432 
Q 1894 3584 2278 3584 
Q 2916 3584 3314 3078 
Q 3713 2572 3713 1747 
Q 3713 922 3314 415 
Q 2916 -91 2278 -91 
Q 1894 -91 1617 61 
Q 1341 213 1159 525 
L 1159 0 
L 581 0 
L 581 4863 
L 1159 4863 
L 1159 2969 
z
" transform="scale(0.015625)"/>
     </defs>
     <use xlink:href="#DejaVuSans-62"/>
    </g>
   </g>
   <g id="text_17">
    <!-- c -->
    <g transform="translate(437.081138 14.798437) scale(0.1 -0.1)">
     <defs>
      <path id="DejaVuSans-63" d="M 3122 3366 
L 3122 2828 
Q 2878 2963 2633 3030 
Q 2388 3097 2138 3097 
Q 1578 3097 1268 2742 
Q 959 2388 959 1747 
Q 959 1106 1268 751 
Q 1578 397 2138 397 
Q 2388 397 2633 464 
Q 2878 531 3122 666 
L 3122 134 
Q 2881 22 2623 -34 
Q 2366 -91 2075 -91 
Q 1284 -91 818 406 
Q 353 903 353 1747 
Q 353 2603 823 3093 
Q 1294 3584 2113 3584 
Q 2378 3584 2631 3529 
Q 2884 3475 3122 3366 
z
" transform="scale(0.015625)"/>
     </defs>
     <use xlink:href="#DejaVuSans-63"/>
    </g>
   </g>
  </g>
 </g>
 <defs>
  <clipPath id="p340cef9f4a">
   <rect x="33.2875" y="19.510837" width="474.3" height="471.24"/>
  </clipPath>
 </defs>
</svg>
